<?xml version="1.0" encoding="utf-8"?>
<!-- Svg Vector Icons : http://www.onlinewebfonts.com/icon -->
<!DOCTYPE svg PUBLIC "-//W3C//DTD SVG 1.1//EN" "http://www.w3.org/Graphics/SVG/1.1/DTD/svg11.dtd">
<svg version="1.1" xmlns="http://www.w3.org/2000/svg" xmlns:xlink="http://www.w3.org/1999/xlink" x="0px" y="0px" viewBox="0 0 1000 1000" enable-background="new 0 0 1000 1000" xml:space="preserve">
<metadata> Svg Vector Icons : http://www.onlinewebfonts.com/icon </metadata>
<g><g transform="translate(0.000000,511.000000) scale(0.100000,-0.100000)"><path d="M5588.1,4730.3c-2011.9-181.8-3008.7-279.8-3029.1-296.2c-24.5-20.4-30.6-94-30.6-420.8v-396.3H5149h2618.6l377.9,482.1c524.9,672,592.3,761.9,592.3,796.6c0,40.8-75.6,110.3-116.4,108.3C8600.9,5001.9,7236.5,4879.4,5588.1,4730.3z"/><path d="M2528.3,2793.9c0-337,4.1-379.9,36.8-408.5c34.7-32.7,273.7-34.7,3018.9-34.7c3259.9,0,3072-6.1,3072,114.4c0,40.8-77.6,110.3-410.5,375.8l-410.6,326.8H5181.7H2528.3V2793.9z"/><path d="M2534.5,1764.5c30.6-475.9,222.6-955.9,551.5-1364.4c500.4-623,1348.1-976.3,2144.7-892.6C6111-400.7,6846.3,110,7226.3,890.2c145,298.2,245.1,690.4,245.1,966.1v106.2H4995.8H2522.2L2534.5,1764.5z"/><path d="M3049.2-496.7c-964.1-392.2-1534-665.9-1789.3-859.9c-433-324.8-731.2-774.1-947.8-1425.7C201.9-3113.2,146.7-3378.7,114-3728c-34.7-375.8-44.9-363.6,469.8-541.3c980.4-337,2506.2-516.8,4416-514.7c1918,0,3433.5,175.7,4416,514.7c496.3,171.6,498.4,175.7,477.9,467.7c-55.1,743.5-345.2,1556.4-729.2,2038.5c-230.8,292.1-502.5,494.3-947.8,712.8c-459.6,222.6-1536,678.1-1556.4,655.7c-6.1-6.1-65.4-222.6-130.7-482.1C6221.3-2096,5906.8-2900.8,5320.5-3967c-253.3-457.5-304.4-506.6-410.6-379.9c-112.3,132.8-506.6,866.1-725.1,1352.2c-292.1,643.4-580.1,1511.5-768,2312.2c-67.4,283.9-71.5,296.2-87.8,296.2C3320.9-388.4,3196.3-437.4,3049.2-496.7z"/><path d="M4550.5-1438.3c-20.4-24.5-12.3-93.9,38.8-359.5c34.7-181.8,73.5-343.2,85.8-357.5c32.7-38.8,614.8-40.8,647.5-2.1c12.3,12.3,51.1,173.6,85.8,357.5c53.1,265.5,61.3,339.1,40.8,361.5C5412.5-1393.3,4587.3-1393.3,4550.5-1438.3z"/><path d="M4681.2-2369.7c-18.4-30.6-151.1-627.1-151.1-680.2c0-44.9,241-533.1,384-776.2l81.7-140.9l63.3,100.1c102.1,163.4,410.5,778.2,410.5,819.1c0,44.9-138.9,655.7-155.2,682.2C5298.1-2337,4699.6-2343.1,4681.2-2369.7z"/></g></g>
</svg>